<svg xmlns="http://www.w3.org/2000/svg" width="443.001" height="122.684" viewBox="0 0 443.001 122.684">
  <g id="Group_3139" data-name="Group 3139" transform="translate(-492.047 -53.932)">
    <path id="Path_12880" data-name="Path 12880" d="M774.942,86.675a1.266,1.266,0,0,0-.293-.09c-6.28-1.661-6.336-1.676-18.913-5.572l5.829-13.852a1.235,1.235,0,0,0-2.1-1.239L742.519,85.8a1.452,1.452,0,0,0-.288.776,1.391,1.391,0,0,0,1.331,1.489c16.8.537,26.393.9,29.544,1.015.815.031,1.357.049,1.357.049h.01a1.27,1.27,0,0,0,1.259-1.187,1.219,1.219,0,0,0-.789-1.265" transform="translate(159.312 7.344)" fill="#fff"/>
    <path id="Path_12881" data-name="Path 12881" d="M736.326,94.186a1.242,1.242,0,0,0,.661.272c.041,0,.083.007.123.007a1.191,1.191,0,0,0,1.187-1.1l.172-2.334q.084-1.122.164-2.242c.052-.719.106-1.435.157-2.154q.076-1.031.152-2.064.071-.987.144-1.977c.046-.63.09-1.26.136-1.892q.066-.9.131-1.809c.043-.574.083-1.151.126-1.727q.059-.822.118-1.647c.038-.522.075-1.046.113-1.568q.054-.746.108-1.493l.1-1.416c.031-.448.064-.9.095-1.344q.047-.636.09-1.272.044-.6.085-1.2.042-.567.08-1.134c.026-.357.051-.712.075-1.069q.037-.5.07-1c.023-.314.044-.627.065-.941.021-.293.041-.586.062-.879.02-.273.038-.545.057-.818.016-.254.034-.509.052-.763.016-.234.031-.47.047-.7.015-.218.031-.435.046-.651l.039-.6c.013-.183.026-.365.038-.548l.034-.5.029-.45c.01-.134.018-.268.026-.4l.025-.36c.007-.106.015-.213.021-.318s.011-.185.018-.277.008-.159.015-.237c.018-.182.031-.368.039-.552a1.053,1.053,0,0,0-.953-1.084.96.96,0,0,0-.136-.008,1.012,1.012,0,0,0-.956.653,1.038,1.038,0,0,0-.082.255l-.332,1.342c-1.419,5.727-2.887,11.649-6.536,24.833l-.064.229L718.13,74.863a.966.966,0,0,0-.408-.088,1.056,1.056,0,0,0-.82.4,1.034,1.034,0,0,0,.139,1.422Z" transform="translate(143.046 0)" fill="#fff"/>
    <path id="Path_12882" data-name="Path 12882" d="M711.169,99.075a1.242,1.242,0,0,0,.156-.01l26.007-2.377a1.467,1.467,0,0,0,.75-.355,1.394,1.394,0,0,0,.093-1.99c-13.723-14.972-24.614-26.18-24.614-26.18a1.27,1.27,0,0,0-1.735-.039,1.217,1.217,0,0,0-.323,1.457,1.342,1.342,0,0,0,.157.285c1.686,2.53,2.922,4.617,4.632,7.508,1.869,3.162,4.19,7.082,8.218,13.51l-13.826,5.825a1.235,1.235,0,0,0,.485,2.367" transform="translate(138.755 8.831)" fill="#fff"/>
    <path id="Path_12883" data-name="Path 12883" d="M747.115,85.428l-.016-.149a1.261,1.261,0,0,0-1.234-1,1.214,1.214,0,0,0-1.2.889,1.371,1.371,0,0,0-.07.35l-3.424,58.073-.016.272-.257-.095-18.718-6.961a1.077,1.077,0,0,0-.337-.052,1.226,1.226,0,0,0-1.043.594,1.212,1.212,0,0,0,.367,1.632l25.629,18.091a1.468,1.468,0,0,0,.768.214l.013,0a1.4,1.4,0,0,0,1.4-1.467c-1.409-44.141-1.756-63.594-1.84-69.911,0-.249,0-.393-.013-.483" transform="translate(145.556 19.327)" fill="#fff"/>
    <path id="Path_12884" data-name="Path 12884" d="M743.47,91.044a1.467,1.467,0,0,0-1.56-.013,1.37,1.37,0,0,0-.635,1.2c.563,16.82.83,26.406.918,29.557.023.809.041,1.349.041,1.349a1.267,1.267,0,0,0,1.265,1.187h.028a1.217,1.217,0,0,0,1.184-.869,1.09,1.09,0,0,0,.07-.3c1.249-6.375,1.259-6.433,4.326-19.237l14.2,4.91a1.234,1.234,0,0,0,1.1-2.18Z" transform="translate(158.706 23.485)" fill="#fff"/>
    <path id="Path_12885" data-name="Path 12885" d="M772.025,82.424,746.018,84.8a1.46,1.46,0,0,0-.75.355,1.393,1.393,0,0,0-.093,1.99c13.721,14.97,24.614,26.179,24.614,26.179a1.25,1.25,0,0,0,.886.363,1.278,1.278,0,0,0,.849-.324,1.219,1.219,0,0,0,.322-1.455,1.294,1.294,0,0,0-.157-.285c-1.686-2.53-2.92-4.617-4.63-7.508-1.871-3.161-4.19-7.082-8.222-13.51l13.828-5.827a1.234,1.234,0,0,0-.64-2.357" transform="translate(160.949 18.137)" fill="#fff"/>
    <path id="Path_12886" data-name="Path 12886" d="M736.382,86.329a1.391,1.391,0,0,0,.663.445,1.416,1.416,0,0,0,.417.065,1.4,1.4,0,0,0,.905-.342c15.243-12.968,27.074-23.629,27.074-23.629a1.269,1.269,0,0,0,.1-1.733,1.225,1.225,0,0,0-1.447-.375,1.289,1.289,0,0,0-.286.146c-2.593,1.591-4.725,2.748-7.676,4.351-3.229,1.751-7.231,3.925-13.8,7.714L737.02,58.938a1.234,1.234,0,0,0-2.378.553l1.414,26.077a1.448,1.448,0,0,0,.326.761" transform="translate(154.479 2.691)" fill="#fff"/>
    <path id="Path_12887" data-name="Path 12887" d="M745.847,92.44a1.393,1.393,0,0,0-1.341-1.475c-20-.869-34.012-1.188-35.918-1.057v-.049a1.268,1.268,0,0,0-1.254,1.2,1.323,1.323,0,0,0,1.113,1.345c2.982.6,5.333,1.2,8.587,2.035,3.558.913,7.971,2.046,15.365,3.74l-5.658,13.9a1.232,1.232,0,0,0,.434,1.455,1.263,1.263,0,0,0,.722.228,1.2,1.2,0,0,0,.963-.47l16.708-20.07a1.468,1.468,0,0,0,.28-.781" transform="translate(137.091 22.878)" fill="#fff"/>
    <path id="Path_12888" data-name="Path 12888" d="M591.808,90.221a6.9,6.9,0,0,0-2.475-1.455,9.279,9.279,0,0,0-3.013-.481h-3v3.233h3a3.167,3.167,0,0,1,1.485.349,3.385,3.385,0,0,1,1.151.99,4.735,4.735,0,0,1,.741,1.529,6.794,6.794,0,0,1,.264,1.936v2.328H582.04v3.436h12.083V96.322a9.427,9.427,0,0,0-.625-3.611,6.882,6.882,0,0,0-1.689-2.49" transform="translate(57.307 21.876)" fill="#fff"/>
    <path id="Path_12889" data-name="Path 12889" d="M601.775,101.38H598.69a4.808,4.808,0,0,1-1.529-.2,2.053,2.053,0,0,1-.946-.625,2.373,2.373,0,0,1-.481-1.034,6.9,6.9,0,0,1-.131-1.426,8.051,8.051,0,0,1,.16-1.6,4.439,4.439,0,0,1,.524-1.4,2.858,2.858,0,0,1,.946-.976,2.7,2.7,0,0,1,1.457-.365,2.741,2.741,0,0,1,1.5.38,2.626,2.626,0,0,1,.946,1.077,5.617,5.617,0,0,1,.494,1.717,16.214,16.214,0,0,1,.146,2.3Zm39.334,1.6h.116a2.653,2.653,0,0,0,1.413,1.383,5.982,5.982,0,0,0,2.663.538,6.848,6.848,0,0,0,2.709-.466,3.979,3.979,0,0,0,1.746-1.455h.116a2.27,2.27,0,0,0,.509.771,3.362,3.362,0,0,0,.758.568,4.339,4.339,0,0,0,.872.365,3.108,3.108,0,0,0,.859.131h9.405V84h-4.135V101.38h-6.056a1.551,1.551,0,0,1-1.193-.466,2.273,2.273,0,0,1-.437-1.573V92.412H646.32v7.074a2.022,2.022,0,0,1-.524,1.573,2.356,2.356,0,0,1-1.6.466,2.926,2.926,0,0,1-1.732-.466,1.8,1.8,0,0,1-.655-1.573V93.322h-4.135v6.164a2.022,2.022,0,0,1-.524,1.573,2.355,2.355,0,0,1-1.6.466,2.928,2.928,0,0,1-1.733-.466,1.8,1.8,0,0,1-.655-1.573V94.173h-4.135v5.167a2.273,2.273,0,0,1-.437,1.573,1.556,1.556,0,0,1-1.193.466h-9.052a2.911,2.911,0,0,1-2.532-1.049,5.174,5.174,0,0,1-.758-3.056,3.949,3.949,0,0,1,.771-2.591,2.8,2.8,0,0,1,2.287-.933,2.5,2.5,0,0,1,1.82.7,3.7,3.7,0,0,1,.974,1.922h3.67a7.3,7.3,0,0,0-1.907-4.323,6.185,6.185,0,0,0-4.557-1.529,9.544,9.544,0,0,0-3.334.509,5.622,5.622,0,0,0-2.2,1.427,5.5,5.5,0,0,0-1.223,2.154,9.07,9.07,0,0,0-.378,2.665,5.634,5.634,0,0,0,.48,2.342,5.518,5.518,0,0,0,1.064,1.645v.118h-6.7q.027-.5.043-.99c.01-.331.015-.679.015-1.049a16.453,16.453,0,0,0-.378-3.7,7.215,7.215,0,0,0-1.237-2.765,5.594,5.594,0,0,0-2.228-1.748,8.187,8.187,0,0,0-3.347-.611,7.967,7.967,0,0,0-3.364.64,6.076,6.076,0,0,0-2.241,1.719,6.761,6.761,0,0,0-1.237,2.445,10.547,10.547,0,0,0-.38,2.823,8.064,8.064,0,0,0,.452,2.781,5.87,5.87,0,0,0,1.282,2.1,5.651,5.651,0,0,0,2.008,1.324,7.107,7.107,0,0,0,2.635.466h3.611a4.225,4.225,0,0,1-1.529,2.91,5.846,5.846,0,0,1-3.567.931,8.744,8.744,0,0,1-1.375-.1v3.077c.123.021.563.039.705.056a9.4,9.4,0,0,0,1.107.059A9.1,9.1,0,0,0,602.736,110a8.3,8.3,0,0,0,2.737-5.182h24.107a2.667,2.667,0,0,0,1.062-.219,4.1,4.1,0,0,0,.9-.524,3.914,3.914,0,0,0,.64-.611,1.215,1.215,0,0,0,.277-.481h.116a2.654,2.654,0,0,0,1.413,1.383,5.987,5.987,0,0,0,2.663.538,6.842,6.842,0,0,0,2.709-.466,3.98,3.98,0,0,0,1.746-1.455" transform="translate(63.31 19.146)" fill="#fff"/>
    <rect id="Rectangle_3347" data-name="Rectangle 3347" width="4.135" height="20.817" transform="translate(729.953 103.145)" fill="#fff"/>
    <rect id="Rectangle_3348" data-name="Rectangle 3348" width="4.305" height="3.585" transform="translate(745.398 103.152)" fill="#fff"/>
    <path id="Path_12890" data-name="Path 12890" d="M649.61,111.085a4.34,4.34,0,0,0,1.7-1.532,6.852,6.852,0,0,0,.907-2.339,15.062,15.062,0,0,0,.275-3v-1.1a2.479,2.479,0,0,0,.414.583,3.213,3.213,0,0,0,.76.581,4.178,4.178,0,0,0,.885.367,3.134,3.134,0,0,0,.879.136H673.97V98.321a7.677,7.677,0,0,0-1.813-5.483c-1.2-1.264-3.177-1.9-5.861-1.9h-4.308L668.8,84h-4.652l-6.966,7v3.347h9.14a3.106,3.106,0,0,1,2.477,1,5,5,0,0,1,.864,3.264v2.565h-14.24a6.808,6.808,0,0,1-1.046-.085,2.733,2.733,0,0,1-.954-.332,1.876,1.876,0,0,1-.679-.679,2.265,2.265,0,0,1-.259-1.154V92.314h-4.333v11.9a7.916,7.916,0,0,1-.478,3.161,1.634,1.634,0,0,1-1.627.985,4.885,4.885,0,0,1-.871-.07,1.857,1.857,0,0,1-.707-.285l-.17-.115v3.243l.067.028a5.641,5.641,0,0,0,1.246.352,8.028,8.028,0,0,0,1.357.118,5.733,5.733,0,0,0,2.639-.547" transform="translate(96.954 19.15)" fill="#fff"/>
    <path id="Path_12891" data-name="Path 12891" d="M689.319,99.97a3.512,3.512,0,0,1-.614,1.185,2.9,2.9,0,0,1-1,.789,3.526,3.526,0,0,1-2.807,0,2.887,2.887,0,0,1-1-.789,3.5,3.5,0,0,1-.614-1.185,5.315,5.315,0,0,1,0-2.954,3.74,3.74,0,0,1,.614-1.2,2.833,2.833,0,0,1,1-.8,3.545,3.545,0,0,1,2.807,0,2.843,2.843,0,0,1,1,.8,3.673,3.673,0,0,1,.614,1.2,5.274,5.274,0,0,1,0,2.954m11.57,1.2h-4.318a4.513,4.513,0,0,1-.941-.1,2.52,2.52,0,0,1-.813-.318,1.826,1.826,0,0,1-.583-.57,1.545,1.545,0,0,1-.227-.859v-.805a7.83,7.83,0,0,0-.6-3.166,6.259,6.259,0,0,0-1.64-2.254,7.024,7.024,0,0,0-2.439-1.344,10.389,10.389,0,0,0-6.05,0,7.053,7.053,0,0,0-2.439,1.344,6.272,6.272,0,0,0-1.64,2.254,7.823,7.823,0,0,0-.6,3.166v.805a1.544,1.544,0,0,1-.226.859,1.848,1.848,0,0,1-.584.57,2.507,2.507,0,0,1-.827.318,4.586,4.586,0,0,1-.926.1h-1.149a6.625,6.625,0,0,1-1.047-.085,2.787,2.787,0,0,1-.954-.331,1.882,1.882,0,0,1-.679-.681,2.24,2.24,0,0,1-.258-1.151V92.315h-4.333v11.9a7.916,7.916,0,0,1-.478,3.159,1.634,1.634,0,0,1-1.627.985,5.052,5.052,0,0,1-.871-.069,1.843,1.843,0,0,1-.705-.286l-.172-.113v3.241l.067.028a5.64,5.64,0,0,0,1.246.354,8.183,8.183,0,0,0,1.357.116,5.754,5.754,0,0,0,2.638-.545,4.332,4.332,0,0,0,1.7-1.534,6.832,6.832,0,0,0,.907-2.337,15.062,15.062,0,0,0,.275-3v-1.1a2.477,2.477,0,0,0,.414.583,3.118,3.118,0,0,0,.761.581,4.206,4.206,0,0,0,.886.368,3.111,3.111,0,0,0,.879.134h1.35a4.4,4.4,0,0,0,2.211-.589,4.159,4.159,0,0,0,1.447-1.306,6.038,6.038,0,0,0,2.625,2.059,10.577,10.577,0,0,0,7.562,0,6.033,6.033,0,0,0,2.627-2.059,4.168,4.168,0,0,0,1.445,1.306,4.41,4.41,0,0,0,2.213.589h8.824V84h-4.3Z" transform="translate(109.348 19.149)" fill="#fff"/>
    <rect id="Rectangle_3349" data-name="Rectangle 3349" width="4.305" height="20.782" transform="translate(819.929 103.152)" fill="#fff"/>
    <path id="Path_12892" data-name="Path 12892" d="M504.2,96.321a9.427,9.427,0,0,0-.625-3.611,6.689,6.689,0,0,0-4.164-3.945,9.279,9.279,0,0,0-3.013-.48h-3v3.231h3a3.166,3.166,0,0,1,1.485.349,3.4,3.4,0,0,1,1.151.99,4.763,4.763,0,0,1,.741,1.529,6.8,6.8,0,0,1,.264,1.936V98.65h-7.92v3.436H504.2Z" transform="translate(0.043 21.876)" fill="#fff"/>
    <rect id="Rectangle_3350" data-name="Rectangle 3350" width="3.349" height="3.319" transform="translate(544.856 103.145)" fill="#fff"/>
    <rect id="Rectangle_3351" data-name="Rectangle 3351" width="3.319" height="3.319" transform="translate(539.907 103.145)" fill="#fff"/>
    <path id="Path_12893" data-name="Path 12893" d="M522.235,100.084a3.672,3.672,0,0,1-.642,1.237,3.041,3.041,0,0,1-1.048.83,3.7,3.7,0,0,1-2.941,0,3.07,3.07,0,0,1-1.047-.83,3.67,3.67,0,0,1-.64-1.237,5.438,5.438,0,0,1,0-3.058,3.839,3.839,0,0,1,.64-1.252,3,3,0,0,1,1.047-.845,3.7,3.7,0,0,1,2.941,0,2.969,2.969,0,0,1,1.048.845,3.841,3.841,0,0,1,.642,1.252,5.478,5.478,0,0,1,0,3.058m29.479.247a5.19,5.19,0,0,1-.758-3.058,3.955,3.955,0,0,1,.773-2.591,2.8,2.8,0,0,1,2.285-.931,2.491,2.491,0,0,1,1.82.7,3.7,3.7,0,0,1,.976,1.922h3.668a7.3,7.3,0,0,0-1.907-4.324,6.19,6.19,0,0,0-4.557-1.527,9.5,9.5,0,0,0-3.332.509,5.592,5.592,0,0,0-2.2,1.427,5.505,5.505,0,0,0-1.223,2.154,9.012,9.012,0,0,0-.38,2.663,5.616,5.616,0,0,0,.481,2.344,5.514,5.514,0,0,0,1.062,1.645v.116h-5.881a2.655,2.655,0,0,1-.889-.159,2.151,2.151,0,0,1-.8-.511,2.645,2.645,0,0,1-.568-.887,3.448,3.448,0,0,1-.218-1.3V92.413h-4.134v6.7a2.62,2.62,0,0,1-.2,1.106,2.032,2.032,0,0,1-.511.7,1.738,1.738,0,0,1-.655.363,2.272,2.272,0,0,1-.64.1H529.47a4.636,4.636,0,0,1-.976-.1,2.712,2.712,0,0,1-.859-.334,1.993,1.993,0,0,1-.625-.612,1.664,1.664,0,0,1-.247-.931v-.815a7.776,7.776,0,0,0-.6-3.159,6.2,6.2,0,0,0-1.63-2.242,6.993,6.993,0,0,0-2.431-1.339,10.374,10.374,0,0,0-6.056,0,6.966,6.966,0,0,0-2.431,1.339,6.2,6.2,0,0,0-1.63,2.242,7.747,7.747,0,0,0-.6,3.159V99.4a1.677,1.677,0,0,1-.247.931,2,2,0,0,1-.627.612,2.7,2.7,0,0,1-.872.334,4.718,4.718,0,0,1-.961.1h-2.65V84H501.9v20.817h6.987a4.313,4.313,0,0,0,2.184-.583,3.981,3.981,0,0,0,1.514-1.426,6,6,0,0,0,2.707,2.183,10.6,10.6,0,0,0,7.57,0,5.988,5.988,0,0,0,2.707-2.183,3.992,3.992,0,0,0,1.514,1.426,4.317,4.317,0,0,0,2.183.583h4.66a7.856,7.856,0,0,0,1.077-.087,6.6,6.6,0,0,0,1.267-.321,8.017,8.017,0,0,0,1.31-.611,4.558,4.558,0,0,0,1.18-.99,5.087,5.087,0,0,0,.712.743,5.569,5.569,0,0,0,.918.64,5.631,5.631,0,0,0,1.047.452,3.663,3.663,0,0,0,1.106.174h18.08v-3.436h-6.377a2.91,2.91,0,0,1-2.532-1.048" transform="translate(6.273 19.146)" fill="#fff"/>
    <path id="Path_12894" data-name="Path 12894" d="M559.991,104.816h8.094V84H563.95V101.38H558.8a2.642,2.642,0,0,1-.887-.16,2.12,2.12,0,0,1-.8-.509,2.612,2.612,0,0,1-.568-.889,3.439,3.439,0,0,1-.219-1.295V84h-4.135V99.11a2.626,2.626,0,0,1-.2,1.106,2.043,2.043,0,0,1-.509.7,1.771,1.771,0,0,1-.656.365,2.322,2.322,0,0,1-.64.1h-3.465V89.356H542.58V101.38h-3.2v3.436h10.8a7.856,7.856,0,0,0,1.077-.087,6.6,6.6,0,0,0,1.267-.321,7.848,7.848,0,0,0,1.309-.612,4.549,4.549,0,0,0,1.18-.989,5.007,5.007,0,0,0,.714.741,5.477,5.477,0,0,0,.917.642,5.627,5.627,0,0,0,1.048.45,3.666,3.666,0,0,0,1.107.175Z" transform="translate(30.139 19.146)" fill="#fff"/>
    <path id="Path_12895" data-name="Path 12895" d="M504.056,117.821v0a4.485,4.485,0,0,0-.818-1.321,6.31,6.31,0,0,0-1.134-.984,8.676,8.676,0,0,0-1.306-.73c-.45-.2-.9-.394-1.345-.57s-.868-.349-1.269-.516a6.868,6.868,0,0,1-1.043-.534,2.543,2.543,0,0,1-.7-.638,1.354,1.354,0,0,1-.254-.814,2.671,2.671,0,0,1,.219-1.124,2.2,2.2,0,0,1,.593-.781,2.494,2.494,0,0,1,.889-.462,4.043,4.043,0,0,1,1.134-.154,8.936,8.936,0,0,1,1.92.21,9.879,9.879,0,0,1,1.845.6l.137.061.381-3.36-.087-.028a13.3,13.3,0,0,0-2.237-.521,12.017,12.017,0,0,0-4.652.141,6.83,6.83,0,0,0-2.174.989,4.116,4.116,0,0,0-.969.9,5.1,5.1,0,0,0-.655,1.115,5.628,5.628,0,0,0-.368,1.254,7.749,7.749,0,0,0-.113,1.316,5.68,5.68,0,0,0,.175,1.462,4.166,4.166,0,0,0,.517,1.195,4.565,4.565,0,0,0,.851.982,8.282,8.282,0,0,0,1.165.845c.242.154.488.295.728.421a6.915,6.915,0,0,0,.758.342q.707.277,1.426.568a11.3,11.3,0,0,1,1.372.668,3.831,3.831,0,0,1,.5.358,2.344,2.344,0,0,1,.4.427,1.551,1.551,0,0,1,.226.519,2.526,2.526,0,0,1,.069.583,1.8,1.8,0,0,1-.293,1.041,2.523,2.523,0,0,1-.766.722,3.5,3.5,0,0,1-1.039.422,4.857,4.857,0,0,1-1.1.136,7.95,7.95,0,0,1-2.162-.3,8.933,8.933,0,0,1-2.023-.849l-.149-.085-.38,3.678.093.023c.789.2,1.594.38,2.388.524a13.473,13.473,0,0,0,2.442.221,11.515,11.515,0,0,0,2.684-.308,6.6,6.6,0,0,0,2.275-1,5.08,5.08,0,0,0,1.58-1.81,5.786,5.786,0,0,0,.589-2.717,9.209,9.209,0,0,0-.067-1.064,4.116,4.116,0,0,0-.255-1.052" transform="translate(0 33.154)" fill="#fff"/>
    <path id="Path_12896" data-name="Path 12896" d="M509.557,118.522a3.876,3.876,0,0,1-.566,1.254,2.813,2.813,0,0,1-.976.866,2.988,2.988,0,0,1-1.434.324,3.737,3.737,0,0,1-.774-.085,2.128,2.128,0,0,1-.7-.275,1.615,1.615,0,0,1-.5-.5,1.333,1.333,0,0,1-.191-.74,1.883,1.883,0,0,1,.295-1.074,2.345,2.345,0,0,1,.769-.714,3.4,3.4,0,0,1,1.059-.39,5.825,5.825,0,0,1,1.142-.118h2.062a5.866,5.866,0,0,1-.187,1.447m3.714.609c-.021-1.4-.033-2.84-.033-4.269a5.83,5.83,0,0,0-1.514-4.4,6.163,6.163,0,0,0-4.395-1.439,12.248,12.248,0,0,0-2.563.267,12.506,12.506,0,0,0-2.444.8l-.069.031.128,3.4.172-.134a7.375,7.375,0,0,1,1.967-1.106,6.338,6.338,0,0,1,2.22-.39,5.263,5.263,0,0,1,1.357.155,2.158,2.158,0,0,1,.93.493,2.022,2.022,0,0,1,.539.887,4.458,4.458,0,0,1,.177,1.27c-.242,0-.493,0-.75-.008-.881-.011-1.807-.007-2.751.061a9.608,9.608,0,0,0-1.82.3,6.355,6.355,0,0,0-1.64.691,4.207,4.207,0,0,0-1.3,1.249,3.809,3.809,0,0,0-.56,1.251,5.858,5.858,0,0,0-.152,1.345,3.791,3.791,0,0,0,.426,1.815,4.162,4.162,0,0,0,1.123,1.337,5.1,5.1,0,0,0,1.578.823,5.921,5.921,0,0,0,1.8.282,5.082,5.082,0,0,0,1.3-.169,5.2,5.2,0,0,0,1.21-.486,5.053,5.053,0,0,0,1.044-.777,4.608,4.608,0,0,0,.66-.8c.007.257.02.512.043.759.031.35.069.7.111,1.043l.013.1h3.385l-.008-.118c-.1-1.431-.155-2.866-.177-4.265" transform="translate(5.551 35.083)" fill="#fff"/>
    <path id="Path_12897" data-name="Path 12897" d="M529.6,120.277a4.876,4.876,0,0,1-.522,1.429,3.153,3.153,0,0,1-.941,1.048,2.417,2.417,0,0,1-1.424.4,2.2,2.2,0,0,1-1.345-.406,3.255,3.255,0,0,1-.9-1.049,4.99,4.99,0,0,1-.511-1.4,7.076,7.076,0,0,1-.162-1.458,9.443,9.443,0,0,1,.129-1.509,5.028,5.028,0,0,1,.453-1.435,2.991,2.991,0,0,1,.882-1.066,2.286,2.286,0,0,1,1.4-.412,2.467,2.467,0,0,1,1.413.4,3.248,3.248,0,0,1,.967,1.023,4.735,4.735,0,0,1,.548,1.395,7.032,7.032,0,0,1,.174,1.517,7.608,7.608,0,0,1-.162,1.53m.188-7.079a4.9,4.9,0,0,0-1.727-1.342,5.639,5.639,0,0,0-2.35-.48,5.764,5.764,0,0,0-2.763.609,5.148,5.148,0,0,0-1.825,1.634,6.827,6.827,0,0,0-1.005,2.352,12.42,12.42,0,0,0-.3,2.776,12.284,12.284,0,0,0,.311,2.768,7.092,7.092,0,0,0,1.01,2.385,5.32,5.32,0,0,0,1.825,1.668,5.6,5.6,0,0,0,2.751.629,5.921,5.921,0,0,0,2.382-.465,5.48,5.48,0,0,0,1.8-1.318v1.452h3.7V105.333h-3.809Z" transform="translate(17.68 32.732)" fill="#fff"/>
    <rect id="Rectangle_3352" data-name="Rectangle 3352" width="3.822" height="14.171" transform="translate(554.77 144.427)" fill="#fff"/>
    <rect id="Rectangle_3353" data-name="Rectangle 3353" width="3.822" height="3.688" transform="translate(554.77 138.421)" fill="#fff"/>
    <path id="Path_12898" data-name="Path 12898" d="M545.255,117.785l2.58-7.424,2.58,7.424Zm4.855-11.6h-4.393l-7.377,19.131h4.126l1.637-4.338h7.438l1.611,4.338h4.388l-7.4-19.06Z" transform="translate(29.479 33.277)" fill="#fff"/>
    <path id="Path_12899" data-name="Path 12899" d="M560.928,120.155a7.414,7.414,0,0,1-1.329.462,4.194,4.194,0,0,1-3.008-.175,3.286,3.286,0,0,1-1.128-.977,4.249,4.249,0,0,1-.656-1.417,6.593,6.593,0,0,1-.213-1.678,6.17,6.17,0,0,1,.213-1.624,4.118,4.118,0,0,1,.65-1.372,3.154,3.154,0,0,1,2.678-1.309,7.993,7.993,0,0,1,1.234.1,3.4,3.4,0,0,1,1.146.4l.147.082.357-3.128-.088-.026a9.08,9.08,0,0,0-1.741-.368,15.766,15.766,0,0,0-1.774-.1,7.142,7.142,0,0,0-2.887.558,6.121,6.121,0,0,0-2.138,1.542,6.732,6.732,0,0,0-1.323,2.332,9.142,9.142,0,0,0-.452,2.912,9.49,9.49,0,0,0,.452,2.982,6.8,6.8,0,0,0,1.336,2.373,6.075,6.075,0,0,0,2.179,1.562,7.457,7.457,0,0,0,2.964.558,17.172,17.172,0,0,0,1.825-.1,9.068,9.068,0,0,0,1.8-.368l.083-.025-.17-3.267Z" transform="translate(37.296 35.083)" fill="#fff"/>
    <path id="Path_12900" data-name="Path 12900" d="M568.166,120.155a7.334,7.334,0,0,1-1.329.462h0a4.186,4.186,0,0,1-3.008-.175,3.277,3.277,0,0,1-1.129-.977,4.286,4.286,0,0,1-.656-1.417,6.6,6.6,0,0,1-.213-1.678,6.179,6.179,0,0,1,.213-1.624,4.09,4.09,0,0,1,.651-1.372,3.148,3.148,0,0,1,2.676-1.309,8,8,0,0,1,1.236.1,3.394,3.394,0,0,1,1.144.4l.149.082.357-3.128-.088-.026a9.1,9.1,0,0,0-1.743-.368,15.71,15.71,0,0,0-1.773-.1,7.132,7.132,0,0,0-2.887.558,6.141,6.141,0,0,0-2.139,1.542,6.715,6.715,0,0,0-1.321,2.332,9.155,9.155,0,0,0-.452,2.912,9.521,9.521,0,0,0,.452,2.984,6.79,6.79,0,0,0,1.334,2.372,6.09,6.09,0,0,0,2.179,1.562,7.465,7.465,0,0,0,2.966.558,17.217,17.217,0,0,0,1.825-.1,9.075,9.075,0,0,0,1.794-.368l.085-.025-.17-3.267Z" transform="translate(41.904 35.083)" fill="#fff"/>
    <path id="Path_12901" data-name="Path 12901" d="M573.373,109.052c-.185-.018-.373-.026-.561-.026a3.344,3.344,0,0,0-1.481.34,3.75,3.75,0,0,0-1.206.941,7.489,7.489,0,0,0-.76,1.059,3.61,3.61,0,0,0-.277.591v-2.616h-3.416v14.173h3.822v-5.228q0-.516.02-1.141a12.237,12.237,0,0,1,.1-1.246,7.548,7.548,0,0,1,.264-1.2,3.7,3.7,0,0,1,.488-1.02,2.365,2.365,0,0,1,.777-.7,2.317,2.317,0,0,1,1.156-.264,6.547,6.547,0,0,1,.8.052,2.282,2.282,0,0,1,.755.226l.162.083V109.15l-.09-.018c-.183-.034-.372-.062-.56-.08" transform="translate(46.884 35.083)" fill="#fff"/>
    <path id="Path_12902" data-name="Path 12902" d="M574.795,114.949a4.455,4.455,0,0,1,.265-1.152,3.018,3.018,0,0,1,.612-1,2.824,2.824,0,0,1,.938-.663,3.1,3.1,0,0,1,1.259-.241,2.891,2.891,0,0,1,1.234.241,2.336,2.336,0,0,1,.851.663,2.993,2.993,0,0,1,.517,1.007,4.93,4.93,0,0,1,.2,1.146Zm9.25-.6h0a10.929,10.929,0,0,0-.409-1.529,7.006,7.006,0,0,0-.66-1.391,4.384,4.384,0,0,0-1.033-1.159,5.3,5.3,0,0,0-1.311-.745,6.955,6.955,0,0,0-1.471-.39,10.3,10.3,0,0,0-1.514-.113,6.576,6.576,0,0,0-2.876.593,5.77,5.77,0,0,0-2.036,1.612,6.912,6.912,0,0,0-1.2,2.377,10.315,10.315,0,0,0-.4,2.894,9.416,9.416,0,0,0,.484,3.146,6.109,6.109,0,0,0,1.421,2.308,6,6,0,0,0,2.3,1.416,9.509,9.509,0,0,0,3.12.475,12.784,12.784,0,0,0,2.468-.241,7.253,7.253,0,0,0,2.326-.886l.054-.033v-3.221l-.167.1a11.911,11.911,0,0,1-2.179,1.008,7.205,7.205,0,0,1-2.347.39,4.519,4.519,0,0,1-1.468-.231,3.535,3.535,0,0,1-1.174-.666,3.346,3.346,0,0,1-.812-1.07,3.889,3.889,0,0,1-.363-1.326h9.533v-.218c0-.484-.023-1-.067-1.522a14.936,14.936,0,0,0-.218-1.58" transform="translate(50.361 35.083)" fill="#fff"/>
    <path id="Path_12903" data-name="Path 12903" d="M590,120.278a4.9,4.9,0,0,1-.524,1.429,3.185,3.185,0,0,1-.941,1.048,2.422,2.422,0,0,1-1.424.4,2.189,2.189,0,0,1-1.344-.408,3.23,3.23,0,0,1-.9-1.049,5.132,5.132,0,0,1-.512-1.4,7.166,7.166,0,0,1-.159-1.458,9.387,9.387,0,0,1,.128-1.509,5.021,5.021,0,0,1,.455-1.437,2.977,2.977,0,0,1,.881-1.064,2.276,2.276,0,0,1,1.4-.414,2.463,2.463,0,0,1,1.412.4,3.227,3.227,0,0,1,.967,1.023,4.7,4.7,0,0,1,.548,1.395,7.033,7.033,0,0,1,.174,1.516,7.74,7.74,0,0,1-.16,1.532m.187-7.081a4.922,4.922,0,0,0-1.727-1.342,5.666,5.666,0,0,0-2.351-.48,5.783,5.783,0,0,0-2.763.609,5.153,5.153,0,0,0-1.825,1.635,6.812,6.812,0,0,0-1,2.352,12.64,12.64,0,0,0,.006,5.544,7.041,7.041,0,0,0,1.012,2.383,5.268,5.268,0,0,0,1.823,1.668,5.6,5.6,0,0,0,2.751.63,5.88,5.88,0,0,0,2.38-.466,5.423,5.423,0,0,0,1.8-1.318v1.453h3.7V105.334h-3.809Z" transform="translate(56.141 32.732)" fill="#fff"/>
    <rect id="Rectangle_3354" data-name="Rectangle 3354" width="3.824" height="3.688" transform="translate(653.628 138.421)" fill="#fff"/>
    <rect id="Rectangle_3355" data-name="Rectangle 3355" width="3.824" height="14.171" transform="translate(653.628 144.427)" fill="#fff"/>
    <path id="Path_12904" data-name="Path 12904" d="M603.962,121.87a2.21,2.21,0,0,1-.753.29,2.507,2.507,0,0,1-1.57-.093,1.366,1.366,0,0,1-.483-.458,2.02,2.02,0,0,1-.267-.665,3.683,3.683,0,0,1-.084-.791v-6.5H604v-2.879h-3.2v-4l-3.822,1.236v2.76h-2.645v2.879h2.645v6.989a6.091,6.091,0,0,0,.288,1.946,3.893,3.893,0,0,0,.854,1.463,3.7,3.7,0,0,0,1.411.913,5.55,5.55,0,0,0,1.93.311c.445,0,.9-.023,1.354-.067a6.7,6.7,0,0,0,1.337-.268l.08-.025-.115-3.146Z" transform="translate(65.139 33.652)" fill="#fff"/>
    <path id="Path_12905" data-name="Path 12905" d="M609.834,118.522a3.871,3.871,0,0,1-.566,1.254,2.829,2.829,0,0,1-.976.866,2.981,2.981,0,0,1-1.432.324,3.741,3.741,0,0,1-.776-.085,2.114,2.114,0,0,1-.7-.275,1.6,1.6,0,0,1-.5-.5,1.332,1.332,0,0,1-.192-.74,1.883,1.883,0,0,1,.295-1.074,2.346,2.346,0,0,1,.769-.714,3.4,3.4,0,0,1,1.059-.39,5.827,5.827,0,0,1,1.143-.118h2.062a5.872,5.872,0,0,1-.186,1.447m3.714.609c-.021-1.385-.033-2.82-.033-4.269a5.831,5.831,0,0,0-1.514-4.4,6.163,6.163,0,0,0-4.395-1.439,12.235,12.235,0,0,0-2.563.267,12.539,12.539,0,0,0-2.444.8l-.069.031.129,3.4.172-.134a7.34,7.34,0,0,1,1.966-1.106,6.338,6.338,0,0,1,2.219-.39,5.285,5.285,0,0,1,1.359.155,2.176,2.176,0,0,1,.928.491,2.047,2.047,0,0,1,.539.889,4.393,4.393,0,0,1,.177,1.27c-.242,0-.493,0-.75-.008-.879-.01-1.805-.007-2.751.061a9.606,9.606,0,0,0-1.82.3,6.358,6.358,0,0,0-1.64.691,4.206,4.206,0,0,0-1.3,1.249,3.846,3.846,0,0,0-.56,1.251,5.882,5.882,0,0,0-.152,1.345,3.791,3.791,0,0,0,.426,1.815,4.143,4.143,0,0,0,1.123,1.337,5.141,5.141,0,0,0,1.578.823,5.929,5.929,0,0,0,1.8.282,5.081,5.081,0,0,0,1.3-.169,5.236,5.236,0,0,0,1.21-.486,5.1,5.1,0,0,0,1.046-.777,4.74,4.74,0,0,0,.658-.8c.007.255.02.511.043.759.029.34.067.691.111,1.043l.013.1h3.385l-.008-.118c-.1-1.429-.155-2.863-.177-4.265" transform="translate(69.406 35.083)" fill="#fff"/>
    <path id="Path_12906" data-name="Path 12906" d="M619.379,121.87a2.21,2.21,0,0,1-.753.29,2.506,2.506,0,0,1-1.57-.093,1.365,1.365,0,0,1-.483-.458,2.019,2.019,0,0,1-.267-.665,3.624,3.624,0,0,1-.084-.791v-6.5h3.2v-2.879h-3.2v-4l-3.822,1.236v2.76h-2.645v2.879H612.4v6.989a6.094,6.094,0,0,0,.288,1.946,3.915,3.915,0,0,0,.854,1.463,3.708,3.708,0,0,0,1.411.913,5.55,5.55,0,0,0,1.93.311c.445,0,.9-.023,1.354-.067a6.7,6.7,0,0,0,1.337-.268l.08-.025-.115-3.146Z" transform="translate(74.956 33.652)" fill="#fff"/>
    <rect id="Rectangle_3356" data-name="Rectangle 3356" width="3.822" height="3.688" transform="translate(696.638 138.421)" fill="#fff"/>
    <rect id="Rectangle_3357" data-name="Rectangle 3357" width="3.822" height="14.171" transform="translate(696.638 144.427)" fill="#fff"/>
    <path id="Path_12907" data-name="Path 12907" d="M631.522,117.824a4.661,4.661,0,0,1-.524,1.511,2.984,2.984,0,0,1-1.02,1.066,3.125,3.125,0,0,1-1.673.406,3.538,3.538,0,0,1-.836-.1,2.374,2.374,0,0,1-.763-.349,2.972,2.972,0,0,1-.768-.683,3.6,3.6,0,0,1-.476-.813,4.463,4.463,0,0,1-.273-.936c-.062-.337-.118-.687-.17-1.046-.016-.131-.033-.264-.046-.4s-.018-.262-.018-.393a5.292,5.292,0,0,1,.218-1.507,4.082,4.082,0,0,1,.635-1.288,3.182,3.182,0,0,1,1.043-.894,3.009,3.009,0,0,1,1.455-.337,3.269,3.269,0,0,1,1.5.324,2.984,2.984,0,0,1,1.039.874,3.866,3.866,0,0,1,.617,1.278,5.833,5.833,0,0,1,.2,1.55,10.22,10.22,0,0,1-.147,1.733m2.133-6.722a6.614,6.614,0,0,0-2.323-1.534,8.158,8.158,0,0,0-3.031-.543,7.93,7.93,0,0,0-3.021.552,6.732,6.732,0,0,0-2.31,1.539,6.817,6.817,0,0,0-1.476,2.372,8.624,8.624,0,0,0-.517,3.041,8.018,8.018,0,0,0,.537,2.982,6.713,6.713,0,0,0,1.512,2.313,6.824,6.824,0,0,0,2.314,1.493,8.022,8.022,0,0,0,2.961.529,8.221,8.221,0,0,0,2.971-.522,6.8,6.8,0,0,0,2.329-1.48,6.646,6.646,0,0,0,1.511-2.313,8.1,8.1,0,0,0,.538-3,8.679,8.679,0,0,0-.517-3.054,6.818,6.818,0,0,0-1.478-2.372" transform="translate(82.101 35.083)" fill="#fff"/>
    <path id="Path_12908" data-name="Path 12908" d="M643.28,110.629a4.012,4.012,0,0,0-1.494-1.177,5.17,5.17,0,0,0-2.193-.427,5.886,5.886,0,0,0-2.594.555,5.564,5.564,0,0,0-1.889,1.539v-1.776h-3.625v14.173h3.822V116.58a8.3,8.3,0,0,1,.154-1.545,5.091,5.091,0,0,1,.514-1.462,3.238,3.238,0,0,1,.936-1.088,2.777,2.777,0,0,1,2.665-.151,1.789,1.789,0,0,1,.71,1.005,4.585,4.585,0,0,1,.263,1.283c.021.43.033.879.033,1.337v7.555h3.807V114.6a8.771,8.771,0,0,0-.263-2.2,4.882,4.882,0,0,0-.845-1.773" transform="translate(88.792 35.083)" fill="#fff"/>
    <path id="Path_12909" data-name="Path 12909" d="M660.05,121.794a5.833,5.833,0,0,1-.918.337c-.339.095-.694.177-1.057.242s-.727.115-1.082.144-.692.046-.992.046a6.583,6.583,0,0,1-2.625-.5,5.614,5.614,0,0,1-1.958-1.38,6.1,6.1,0,0,1-1.234-2.1,7.879,7.879,0,0,1-.432-2.653,8.192,8.192,0,0,1,.419-2.642,6.349,6.349,0,0,1,1.21-2.138,5.659,5.659,0,0,1,1.931-1.432,6.177,6.177,0,0,1,2.6-.525c.4,0,.769.015,1.1.046a7.014,7.014,0,0,1,.972.156,6.23,6.23,0,0,1,.933.3,8.523,8.523,0,0,1,1,.489l.151.085.285-3.459-.082-.029a15.643,15.643,0,0,0-2.1-.571A11.049,11.049,0,0,0,656,106a15.169,15.169,0,0,0-3.514.393,9.31,9.31,0,0,0-2.961,1.259,8.021,8.021,0,0,0-2.242,2.239,9.263,9.263,0,0,0-1.339,3.337,14.422,14.422,0,0,0-.244,1.478,13.492,13.492,0,0,0-.087,1.507,14.036,14.036,0,0,0,.146,2.033,9.348,9.348,0,0,0,.489,1.913,7.976,7.976,0,0,0,.91,1.73,7.581,7.581,0,0,0,1.388,1.5,9.681,9.681,0,0,0,1.689,1.129,10.141,10.141,0,0,0,1.82.743,11.564,11.564,0,0,0,1.93.4,16.633,16.633,0,0,0,2.015.121,15.513,15.513,0,0,0,2.162-.154,16.459,16.459,0,0,0,2.123-.445l.085-.025-.17-3.429Z" transform="translate(97.789 33.154)" fill="#fff"/>
    <path id="Path_12910" data-name="Path 12910" d="M659.071,114.949a4.557,4.557,0,0,1,.263-1.152,3.073,3.073,0,0,1,.612-1,2.858,2.858,0,0,1,.94-.663,3.1,3.1,0,0,1,1.257-.241,2.9,2.9,0,0,1,1.236.241,2.336,2.336,0,0,1,.851.663,3.023,3.023,0,0,1,.517,1.007,4.885,4.885,0,0,1,.2,1.146Zm9.249-.6a11.07,11.07,0,0,0-.411-1.529,6.99,6.99,0,0,0-.658-1.391,4.359,4.359,0,0,0-1.034-1.159,5.2,5.2,0,0,0-1.31-.743,6.835,6.835,0,0,0-1.471-.391,10.32,10.32,0,0,0-1.516-.113,6.58,6.58,0,0,0-2.876.593,5.763,5.763,0,0,0-2.034,1.612,6.942,6.942,0,0,0-1.2,2.377,10.316,10.316,0,0,0-.4,2.894,9.455,9.455,0,0,0,.484,3.144,6.122,6.122,0,0,0,1.421,2.31,6.009,6.009,0,0,0,2.3,1.416,9.516,9.516,0,0,0,3.12.475,12.8,12.8,0,0,0,2.47-.241,7.255,7.255,0,0,0,2.326-.886l.054-.033v-3.221l-.167.1a11.874,11.874,0,0,1-2.18,1.008,7.2,7.2,0,0,1-2.346.39,4.526,4.526,0,0,1-1.468-.231,3.525,3.525,0,0,1-1.175-.666,3.362,3.362,0,0,1-.81-1.07,3.9,3.9,0,0,1-.365-1.326H668.6v-.218c0-.478-.023-.99-.065-1.522a14.937,14.937,0,0,0-.218-1.58" transform="translate(104.027 35.083)" fill="#fff"/>
    <path id="Path_12911" data-name="Path 12911" d="M676.818,110.629a4.014,4.014,0,0,0-1.495-1.177,5.169,5.169,0,0,0-2.193-.427,5.886,5.886,0,0,0-2.594.555,5.563,5.563,0,0,0-1.889,1.539v-1.776h-3.626v14.173h3.822V116.58a8.222,8.222,0,0,1,.155-1.545,5.094,5.094,0,0,1,.512-1.462,3.24,3.24,0,0,1,.936-1.088,2.382,2.382,0,0,1,1.439-.421,2.416,2.416,0,0,1,1.228.27,1.8,1.8,0,0,1,.71,1,4.667,4.667,0,0,1,.262,1.285c.021.43.033.879.033,1.337v7.555h3.809V114.6a8.751,8.751,0,0,0-.265-2.2,4.887,4.887,0,0,0-.844-1.773" transform="translate(110.148 35.083)" fill="#fff"/>
    <path id="Path_12912" data-name="Path 12912" d="M683.719,121.87a2.21,2.21,0,0,1-.753.29,2.5,2.5,0,0,1-1.57-.093,1.366,1.366,0,0,1-.483-.458,2.019,2.019,0,0,1-.267-.665,3.683,3.683,0,0,1-.084-.791v-6.5h3.2v-2.879h-3.2v-4l-3.822,1.236v2.76H674.1v2.879h2.643v6.989a6.093,6.093,0,0,0,.288,1.946,3.917,3.917,0,0,0,.854,1.463,3.7,3.7,0,0,0,1.411.913,5.55,5.55,0,0,0,1.93.311c.445,0,.9-.023,1.354-.067a6.8,6.8,0,0,0,1.337-.268l.08-.025-.115-3.146Z" transform="translate(115.928 33.652)" fill="#fff"/>
    <path id="Path_12913" data-name="Path 12913" d="M684.461,114.949a4.466,4.466,0,0,1,.265-1.152,3.019,3.019,0,0,1,.612-1,2.832,2.832,0,0,1,.938-.663,3.1,3.1,0,0,1,1.259-.241,2.9,2.9,0,0,1,1.236.241,2.344,2.344,0,0,1,.849.663,3.008,3.008,0,0,1,.517,1.007,4.918,4.918,0,0,1,.2,1.146Zm9.25-.6a10.907,10.907,0,0,0-.411-1.529,6.913,6.913,0,0,0-.658-1.391,4.36,4.36,0,0,0-1.034-1.159,5.259,5.259,0,0,0-1.309-.745,6.957,6.957,0,0,0-1.471-.39,10.314,10.314,0,0,0-1.514-.113,6.588,6.588,0,0,0-2.877.593,5.764,5.764,0,0,0-2.035,1.612,6.943,6.943,0,0,0-1.2,2.377,10.319,10.319,0,0,0-.4,2.894,9.455,9.455,0,0,0,.484,3.144,6.129,6.129,0,0,0,1.421,2.31,6,6,0,0,0,2.3,1.416,9.517,9.517,0,0,0,3.12.475,12.788,12.788,0,0,0,2.47-.241,7.252,7.252,0,0,0,2.326-.886l.054-.033v-3.221l-.167.1a11.869,11.869,0,0,1-2.18,1.008,7.2,7.2,0,0,1-2.345.39,4.533,4.533,0,0,1-1.468-.231,3.557,3.557,0,0,1-1.175-.666,3.367,3.367,0,0,1-.81-1.07,3.9,3.9,0,0,1-.365-1.326h9.533v-.218c0-.478-.023-.99-.065-1.522a14.921,14.921,0,0,0-.218-1.58" transform="translate(120.195 35.083)" fill="#fff"/>
    <path id="Path_12914" data-name="Path 12914" d="M698.159,109.052c-.183-.018-.372-.026-.56-.026a3.356,3.356,0,0,0-1.483.34,3.774,3.774,0,0,0-1.206.941,7.417,7.417,0,0,0-.758,1.059,3.573,3.573,0,0,0-.277.589v-2.614h-3.418v14.173h3.824v-5.228q0-.516.018-1.141c.015-.416.049-.835.1-1.246a7.638,7.638,0,0,1,.264-1.2,3.7,3.7,0,0,1,.489-1.02,2.36,2.36,0,0,1,.776-.7,2.317,2.317,0,0,1,1.156-.264,6.55,6.55,0,0,1,.8.052,2.3,2.3,0,0,1,.756.226l.16.083V109.15l-.09-.018c-.182-.034-.37-.062-.56-.08" transform="translate(126.346 35.083)" fill="#fff"/>
    <path id="Path_12915" data-name="Path 12915" d="M519.46,116.158a8.217,8.217,0,0,1-.156,1.545,5.123,5.123,0,0,1-.512,1.463,3.253,3.253,0,0,1-.936,1.087,2.375,2.375,0,0,1-1.44.421,2.431,2.431,0,0,1-1.226-.268,1.81,1.81,0,0,1-.71-1.005,4.665,4.665,0,0,1-.262-1.285c-.021-.429-.033-.879-.033-1.336v-7.557h-3.809v8.919a8.773,8.773,0,0,0,.265,2.2,4.89,4.89,0,0,0,.845,1.771,4,4,0,0,0,1.494,1.177,5.164,5.164,0,0,0,2.193.427,5.909,5.909,0,0,0,2.594-.553,5.59,5.59,0,0,0,1.889-1.54V123.4h3.625V109.223H519.46Z" transform="translate(11.672 35.209)" fill="#fff"/>
    <rect id="Rectangle_3358" data-name="Rectangle 3358" width="3.354" height="3.324" transform="translate(617.716 130.976)" fill="#fff"/>
    <rect id="Rectangle_3359" data-name="Rectangle 3359" width="3.324" height="3.324" transform="translate(612.759 130.976)" fill="#fff"/>
    <path id="Path_12916" data-name="Path 12916" d="M579.09,89.973c-1.288,1.4-1.534,2.259-1.561,4.406l-.16,8.822-5.953-.079c-3.416-.046-5.1-1.679-5.063-4.8l-.025-5-4.107-.056-.075,5.727a7.781,7.781,0,0,0,1.832,5.395c1.25,1.432,3.242,2.19,5.976,2.226l11.762.157.156-11.811c.041-3.069,1.763-3.161,5.061-3.174l-.1,10.415,4.4.057.19-13.931-5.681-.075c-2.733-.036-5.41.319-6.649,1.719" transform="translate(44.638 21.854)" fill="#fff"/>
  </g>
</svg>
